<?xml version="1.0" encoding="UTF-8"?><svg xmlns="http://www.w3.org/2000/svg" xmlns:xlink="http://www.w3.org/1999/xlink" fill-opacity="1" color-rendering="auto" color-interpolation="auto" text-rendering="auto" stroke="black" stroke-linecap="square" width="477" stroke-miterlimit="10" shape-rendering="auto" stroke-opacity="1" fill="black" stroke-dasharray="none" font-weight="normal" stroke-width="1" height="536" font-family="'Dialog'" font-style="normal" stroke-linejoin="miter" font-size="12px" stroke-dashoffset="0" image-rendering="auto">
  <!--Generated by ySVG 2.5-->
  <defs id="genericDefs"/>
  <g>
    <g fill="white" text-rendering="geometricPrecision" shape-rendering="geometricPrecision" transform="translate(-333,-189)" stroke="white">
      <rect x="333" width="477" height="536" y="189" clip-path="url(#clipPath2)" stroke="none"/>
    </g>
    <g fill="rgb(255,204,0)" text-rendering="geometricPrecision" shape-rendering="geometricPrecision" transform="matrix(1,0,0,1,-333,-189)" stroke="rgb(255,204,0)">
      <rect x="540.748" width="65" height="53" y="558.472" clip-path="url(#clipPath2)" stroke="none"/>
    </g>
    <g text-rendering="geometricPrecision" stroke-miterlimit="1.45" shape-rendering="geometricPrecision" transform="matrix(1,0,0,1,-333,-189)" stroke-linecap="butt">
      <rect fill="none" x="540.748" width="65" height="53" y="558.472" clip-path="url(#clipPath2)"/>
      <text x="547.2382" xml:space="preserve" y="582.429" clip-path="url(#clipPath2)" font-family="sans-serif" stroke="none">Controller</text>
      <text x="564.913" xml:space="preserve" y="595.8353" clip-path="url(#clipPath2)" font-family="sans-serif" stroke="none">PC</text>
    </g>
    <g fill="rgb(255,204,0)" text-rendering="geometricPrecision" shape-rendering="geometricPrecision" transform="matrix(1,0,0,1,-333,-189)" stroke="rgb(255,204,0)">
      <rect x="360.68" width="36.656" height="30" y="349.768" clip-path="url(#clipPath2)" stroke="none"/>
    </g>
    <g text-rendering="geometricPrecision" stroke-miterlimit="1.45" shape-rendering="geometricPrecision" transform="matrix(1,0,0,1,-333,-189)" stroke-linecap="butt">
      <rect fill="none" x="360.68" width="36.656" height="30" y="349.768" clip-path="url(#clipPath2)"/>
      <text x="367.342" xml:space="preserve" y="362.225" clip-path="url(#clipPath2)" font-family="sans-serif" stroke="none">Disc</text>
      <text x="362.9973" xml:space="preserve" y="375.6313" clip-path="url(#clipPath2)" font-family="sans-serif" stroke="none">sense</text>
    </g>
    <g fill="rgb(255,204,0)" text-rendering="geometricPrecision" shape-rendering="geometricPrecision" transform="matrix(1,0,0,1,-333,-189)" stroke="rgb(255,204,0)">
      <rect x="574.888" width="50.48" height="50.48" y="270.832" clip-path="url(#clipPath2)" stroke="none"/>
    </g>
    <g text-rendering="geometricPrecision" stroke-miterlimit="1.45" shape-rendering="geometricPrecision" transform="matrix(1,0,0,1,-333,-189)" stroke-linecap="butt">
      <rect fill="none" x="574.888" width="50.48" height="50.48" y="270.832" clip-path="url(#clipPath2)"/>
      <text x="586.127" xml:space="preserve" y="300.2321" clip-path="url(#clipPath2)" font-family="sans-serif" stroke="none">Drive</text>
    </g>
    <g fill="rgb(255,204,0)" text-rendering="geometricPrecision" shape-rendering="geometricPrecision" transform="matrix(1,0,0,1,-333,-189)" stroke="rgb(255,204,0)">
      <path d="M400.92 442.432 L423.856 421.288 L446.792 442.432 L423.856 463.576 Z" fill-rule="evenodd" clip-path="url(#clipPath2)" stroke="none"/>
    </g>
    <g text-rendering="geometricPrecision" stroke-miterlimit="1.45" shape-rendering="geometricPrecision" transform="matrix(1,0,0,1,-333,-189)" stroke-linecap="butt">
      <path fill="none" d="M400.92 442.432 L423.856 421.288 L446.792 442.432 L423.856 463.576 Z" fill-rule="evenodd" clip-path="url(#clipPath2)"/>
      <text x="409.521" xml:space="preserve" y="446.5922" clip-path="url(#clipPath2)" font-family="sans-serif" stroke="none">uArm</text>
    </g>
    <g fill="rgb(255,204,0)" text-rendering="geometricPrecision" shape-rendering="geometricPrecision" transform="matrix(1,0,0,1,-333,-189)" stroke="rgb(255,204,0)">
      <circle r="26.52" clip-path="url(#clipPath2)" cx="423.856" cy="364.768" stroke="none"/>
    </g>
    <g text-rendering="geometricPrecision" stroke-miterlimit="1.45" shape-rendering="geometricPrecision" transform="matrix(1,0,0,1,-333,-189)" stroke-linecap="butt">
      <circle fill="none" r="26.52" clip-path="url(#clipPath2)" cx="423.856" cy="364.768"/>
      <text x="404.8452" xml:space="preserve" y="362.225" clip-path="url(#clipPath2)" font-family="sans-serif" stroke="none">Source</text>
      <text x="413.854" xml:space="preserve" y="375.6313" clip-path="url(#clipPath2)" font-family="sans-serif" stroke="none">tray</text>
    </g>
    <g fill="rgb(255,204,0)" text-rendering="geometricPrecision" shape-rendering="geometricPrecision" transform="matrix(1,0,0,1,-333,-189)" stroke="rgb(255,204,0)">
      <circle r="26.52" clip-path="url(#clipPath2)" cx="423.856" cy="296.072" stroke="none"/>
    </g>
    <g text-rendering="geometricPrecision" stroke-miterlimit="1.45" shape-rendering="geometricPrecision" transform="matrix(1,0,0,1,-333,-189)" stroke-linecap="butt">
      <circle fill="none" r="26.52" clip-path="url(#clipPath2)" cx="423.856" cy="296.072"/>
      <text x="409.5122" xml:space="preserve" y="293.529" clip-path="url(#clipPath2)" font-family="sans-serif" stroke="none">Done</text>
      <text x="413.854" xml:space="preserve" y="306.9353" clip-path="url(#clipPath2)" font-family="sans-serif" stroke="none">tray</text>
    </g>
    <g fill="rgb(255,204,0)" text-rendering="geometricPrecision" shape-rendering="geometricPrecision" transform="matrix(1,0,0,1,-333,-189)" stroke="rgb(255,204,0)">
      <circle r="26.52" clip-path="url(#clipPath2)" cx="672.84" cy="442.432" stroke="none"/>
    </g>
    <g text-rendering="geometricPrecision" stroke-miterlimit="1.45" shape-rendering="geometricPrecision" transform="matrix(1,0,0,1,-333,-189)" stroke-linecap="butt">
      <circle fill="none" r="26.52" clip-path="url(#clipPath2)" cx="672.84" cy="442.432"/>
      <text x="656.4982" xml:space="preserve" y="439.889" clip-path="url(#clipPath2)" font-family="sans-serif" stroke="none">Failed</text>
      <text x="662.8381" xml:space="preserve" y="453.2953" clip-path="url(#clipPath2)" font-family="sans-serif" stroke="none">tray</text>
    </g>
    <g fill="rgb(255,204,0)" text-rendering="geometricPrecision" shape-rendering="geometricPrecision" transform="matrix(1,0,0,1,-333,-189)" stroke="rgb(255,204,0)">
      <rect x="360.68" width="36.656" height="30" y="281.072" clip-path="url(#clipPath2)" stroke="none"/>
    </g>
    <g text-rendering="geometricPrecision" stroke-miterlimit="1.45" shape-rendering="geometricPrecision" transform="matrix(1,0,0,1,-333,-189)" stroke-linecap="butt">
      <rect fill="none" x="360.68" width="36.656" height="30" y="281.072" clip-path="url(#clipPath2)"/>
      <text x="367.342" xml:space="preserve" y="293.529" clip-path="url(#clipPath2)" font-family="sans-serif" stroke="none">Disc</text>
      <text x="362.9973" xml:space="preserve" y="306.9353" clip-path="url(#clipPath2)" font-family="sans-serif" stroke="none">sense</text>
    </g>
    <g fill="rgb(255,204,0)" text-rendering="geometricPrecision" shape-rendering="geometricPrecision" transform="matrix(1,0,0,1,-333,-189)" stroke="rgb(255,204,0)">
      <path d="M573.248 404.728 L585.4222 386.9644 L606.0785 380.8753 L592.9463 363.8076 L593.5383 342.2807 L573.248 349.496 L552.9576 342.2807 L553.5497 363.8076 L540.4175 380.8753 L561.0738 386.9644 Z" fill-rule="evenodd" clip-path="url(#clipPath2)" stroke="none"/>
    </g>
    <g text-rendering="geometricPrecision" stroke-miterlimit="1.45" shape-rendering="geometricPrecision" transform="matrix(1,0,0,1,-333,-189)" stroke-linecap="butt">
      <path fill="none" d="M573.248 404.728 L585.4222 386.9644 L606.0785 380.8753 L592.9463 363.8076 L593.5383 342.2807 L573.248 349.496 L552.9576 342.2807 L553.5497 363.8076 L540.4175 380.8753 L561.0738 386.9644 Z" fill-rule="evenodd" clip-path="url(#clipPath2)"/>
      <text x="551.9081" xml:space="preserve" y="374.3682" clip-path="url(#clipPath2)" font-family="sans-serif" stroke="none">Camera</text>
    </g>
    <g fill="rgb(255,204,0)" text-rendering="geometricPrecision" shape-rendering="geometricPrecision" transform="matrix(1,0,0,1,-333,-189)" stroke="rgb(255,204,0)">
      <path d="M719.008 353.832 L809.368 353.832 L799.328 371.392 L809.368 388.952 L719.008 388.952 L708.968 371.392 Z" fill-rule="evenodd" clip-path="url(#clipPath2)" stroke="none"/>
    </g>
    <g text-rendering="geometricPrecision" stroke-miterlimit="1.45" shape-rendering="geometricPrecision" transform="matrix(1,0,0,1,-333,-189)" stroke-linecap="butt">
      <path fill="none" d="M719.008 353.832 L809.368 353.832 L799.328 371.392 L809.368 388.952 L719.008 388.952 L708.968 371.392 Z" fill-rule="evenodd" clip-path="url(#clipPath2)"/>
      <text x="747.4991" xml:space="preserve" y="368.849" clip-path="url(#clipPath2)" font-family="sans-serif" stroke="none">ATX</text>
      <text x="723.8155" xml:space="preserve" y="382.2553" clip-path="url(#clipPath2)" font-family="sans-serif" stroke="none">power supply</text>
    </g>
    <g fill="rgb(255,204,0)" text-rendering="geometricPrecision" shape-rendering="geometricPrecision" transform="matrix(1,0,0,1,-333,-189)" stroke="rgb(255,204,0)">
      <rect x="658.32" width="53.68" height="53" y="558.472" clip-path="url(#clipPath2)" stroke="none"/>
    </g>
    <g text-rendering="geometricPrecision" stroke-miterlimit="1.45" shape-rendering="geometricPrecision" transform="matrix(1,0,0,1,-333,-189)" stroke-linecap="butt">
      <rect fill="none" x="658.32" width="53.68" height="53" y="558.472" clip-path="url(#clipPath2)"/>
      <text x="666.1609" xml:space="preserve" y="582.429" clip-path="url(#clipPath2)" font-family="sans-serif" stroke="none">DC/DC</text>
      <text x="660.1492" xml:space="preserve" y="595.8353" clip-path="url(#clipPath2)" font-family="sans-serif" stroke="none">converter</text>
    </g>
    <g fill="rgb(255,204,0)" text-rendering="geometricPrecision" shape-rendering="geometricPrecision" transform="matrix(1,0,0,1,-333,-189)" stroke="rgb(255,204,0)">
      <rect x="482.124" y="657.632" clip-path="url(#clipPath2)" width="77.928" rx="4" ry="4" height="17.84" stroke="none"/>
    </g>
    <g text-rendering="geometricPrecision" stroke-miterlimit="1.45" shape-rendering="geometricPrecision" transform="matrix(1,0,0,1,-333,-189)" stroke-linecap="butt">
      <rect x="482.124" y="657.632" clip-path="url(#clipPath2)" fill="none" width="77.928" rx="4" ry="4" height="17.84"/>
      <text x="487.7452" xml:space="preserve" y="670.7122" clip-path="url(#clipPath2)" font-family="sans-serif" stroke="none">LCD Display</text>
    </g>
    <g fill="rgb(255,204,0)" text-rendering="geometricPrecision" shape-rendering="geometricPrecision" transform="matrix(1,0,0,1,-333,-189)" stroke="rgb(255,204,0)">
      <path d="M494.876 498.472 L540.748 498.472 L529.28 528.472 L506.344 528.472 Z" fill-rule="evenodd" clip-path="url(#clipPath2)" stroke="none"/>
    </g>
    <g text-rendering="geometricPrecision" stroke-miterlimit="1.45" shape-rendering="geometricPrecision" transform="matrix(1,0,0,1,-333,-189)" stroke-linecap="butt">
      <path fill="none" d="M494.876 498.472 L540.748 498.472 L529.28 528.472 L506.344 528.472 Z" fill-rule="evenodd" clip-path="url(#clipPath2)"/>
      <text x="502.1411" xml:space="preserve" y="510.929" clip-path="url(#clipPath2)" font-family="sans-serif" stroke="none">SATA</text>
      <text x="505.4751" xml:space="preserve" y="524.3353" clip-path="url(#clipPath2)" font-family="sans-serif" stroke="none">USB</text>
    </g>
    <g text-rendering="geometricPrecision" shape-rendering="geometricPrecision" transform="matrix(1,0,0,1,265.414,453.221)">
      <g clip-path="url(#clipPath3)">
        <svg xml:space="preserve" opacity="1" writing-mode="lr-tb" stop-color="rgb(0, 0, 0)" shape-rendering="auto" glyph-orientation-horizontal="0deg" color-profile="auto" lighting-color="rgb(255, 255, 255)" color="rgb(0, 0, 0)" font-weight="400" alignment-baseline="auto" font-style="normal" version="1.1" color-interpolation-filters="linearrgb" text-anchor="start" stroke-linecap="butt" color-interpolation="srgb" font-variant="normal" word-spacing="normal" fill-opacity="1" text-rendering="auto" clip-path="none" text-decoration="none" letter-spacing="normal" viewBox="-0.875 -0.887 41 48" glyph-orientation-vertical="auto" display="inline" font-size-adjust="none" overflow="visible" fill="rgb(0, 0, 0)" font-stretch="normal" stroke-dasharray="none" stroke-miterlimit="4" stop-opacity="1" color-rendering="auto" font-size="12" pointer-events="visiblepainted" mask="none" direction="ltr" baseline-shift="baseline" enable-background="new -0.875 -0.887 41 48" fill-rule="nonzero" image-rendering="auto" stroke-dashoffset="0" width="41px" marker-end="none" clip="auto" cursor="auto" stroke="none" filter="none" visibility="visible" kerning="auto" stroke-width="1" font-family="&quot;Arial&quot;,&quot;Helvetica&quot;,sans-serif" flood-opacity="1" clip-rule="nonzero" src="none" height="48px" unicode-bidi="normal" stroke-linejoin="miter" stroke-opacity="1" flood-color="rgb(0, 0, 0)" dominant-baseline="auto" marker-start="none" x="0px" marker-mid="none" y="0px">
<defs>
<clipPath clipPathUnits="userSpaceOnUse" id="clipPath1">
              <path d="M0 0 L477 0 L477 536 L0 536 L0 0 Z"/>
            </clipPath>
            <clipPath clipPathUnits="userSpaceOnUse" id="clipPath2">
              <path d="M333 189 L810 189 L810 725 L333 725 L333 189 Z"/>
            </clipPath>
            <clipPath clipPathUnits="userSpaceOnUse" id="clipPath3">
              <path d="M-265.414 -453.221 L211.586 -453.221 L211.586 82.779 L-265.414 82.779 L-265.414 -453.221 Z"/>
            </clipPath>
          </defs>
<linearGradient gradientTransform="matrix(1 0 0 -1 -642.8008 -939.4756)" x1="642.8008" x2="682.0508" gradientUnits="userSpaceOnUse" y1="-979.1445" y2="-979.1445" id="svg1.SVGID_1_">
	<stop offset="0" style="stop-color:#3C89C9"/>
	<stop offset="0.1482" style="stop-color:#60A6DD"/>
	<stop offset="0.3113" style="stop-color:#81C1F0"/>
	<stop offset="0.4476" style="stop-color:#95D1FB"/>
	<stop offset="0.5394" style="stop-color:#9CD7FF"/>
	<stop offset="0.636" style="stop-color:#98D4FD"/>
	<stop offset="0.7293" style="stop-color:#8DCAF6"/>
	<stop offset="0.8214" style="stop-color:#79BBEB"/>
	<stop offset="0.912" style="stop-color:#5EA5DC"/>
	<stop offset="1" style="stop-color:#3C89C9"/>
</linearGradient>
<path fill="url(#svg1.SVGID_1_)" d="M19.625,36.763C8.787,36.763,0,34.888,0,32.575v10c0,2.313,8.787,4.188,19.625,4.188  c10.839,0,19.625-1.875,19.625-4.188v-10C39.25,34.888,30.464,36.763,19.625,36.763z"/>
<linearGradient gradientTransform="matrix(1 0 0 -1 -642.8008 -939.4756)" x1="642.8008" x2="682.0508" gradientUnits="userSpaceOnUse" y1="-973.1445" y2="-973.1445" id="svg1.SVGID_2_">
	<stop offset="0" style="stop-color:#9CD7FF"/>
	<stop offset="0.0039" style="stop-color:#9DD7FF"/>
	<stop offset="0.2273" style="stop-color:#BDE5FF"/>
	<stop offset="0.4138" style="stop-color:#D1EEFF"/>
	<stop offset="0.5394" style="stop-color:#D9F1FF"/>
	<stop offset="0.6155" style="stop-color:#D5EFFE"/>
	<stop offset="0.6891" style="stop-color:#C9E7FA"/>
	<stop offset="0.7617" style="stop-color:#B6DAF3"/>
	<stop offset="0.8337" style="stop-color:#9AC8EA"/>
	<stop offset="0.9052" style="stop-color:#77B0DD"/>
	<stop offset="0.9754" style="stop-color:#4D94CF"/>
	<stop offset="1" style="stop-color:#3C89C9"/>
</linearGradient>
<path fill="url(#svg1.SVGID_2_)" d="M19.625,36.763c10.839,0,19.625-1.875,19.625-4.188l-1.229-2c0,2.168-8.235,3.927-18.396,3.927  c-9.481,0-17.396-1.959-18.396-3.927l-1.229,2C0,34.888,8.787,36.763,19.625,36.763z"/>
<path fill="#3C89C9" d="M19.625,26.468c10.16,0,19.625,2.775,19.625,2.775c-0.375,2.721-5.367,5.438-19.554,5.438  c-12.125,0-18.467-2.484-19.541-4.918C-0.127,29.125,9.465,26.468,19.625,26.468z"/>
<linearGradient gradientTransform="matrix(1 0 0 -1 -642.8008 -939.4756)" x1="642.8008" x2="682.0508" gradientUnits="userSpaceOnUse" y1="-965.6948" y2="-965.6948" id="svg1.SVGID_3_">
	<stop offset="0" style="stop-color:#3C89C9"/>
	<stop offset="0.1482" style="stop-color:#60A6DD"/>
	<stop offset="0.3113" style="stop-color:#81C1F0"/>
	<stop offset="0.4476" style="stop-color:#95D1FB"/>
	<stop offset="0.5394" style="stop-color:#9CD7FF"/>
	<stop offset="0.636" style="stop-color:#98D4FD"/>
	<stop offset="0.7293" style="stop-color:#8DCAF6"/>
	<stop offset="0.8214" style="stop-color:#79BBEB"/>
	<stop offset="0.912" style="stop-color:#5EA5DC"/>
	<stop offset="1" style="stop-color:#3C89C9"/>
</linearGradient>
<path fill="url(#svg1.SVGID_3_)" d="M19.625,23.313C8.787,23.313,0,21.438,0,19.125v10c0,2.313,8.787,4.188,19.625,4.188  c10.839,0,19.625-1.875,19.625-4.188v-10C39.25,21.438,30.464,23.313,19.625,23.313z"/>
<linearGradient gradientTransform="matrix(1 0 0 -1 -642.8008 -939.4756)" x1="642.8008" x2="682.0508" gradientUnits="userSpaceOnUse" y1="-959.6948" y2="-959.6948" id="svg1.SVGID_4_">
	<stop offset="0" style="stop-color:#9CD7FF"/>
	<stop offset="0.0039" style="stop-color:#9DD7FF"/>
	<stop offset="0.2273" style="stop-color:#BDE5FF"/>
	<stop offset="0.4138" style="stop-color:#D1EEFF"/>
	<stop offset="0.5394" style="stop-color:#D9F1FF"/>
	<stop offset="0.6155" style="stop-color:#D5EFFE"/>
	<stop offset="0.6891" style="stop-color:#C9E7FA"/>
	<stop offset="0.7617" style="stop-color:#B6DAF3"/>
	<stop offset="0.8337" style="stop-color:#9AC8EA"/>
	<stop offset="0.9052" style="stop-color:#77B0DD"/>
	<stop offset="0.9754" style="stop-color:#4D94CF"/>
	<stop offset="1" style="stop-color:#3C89C9"/>
</linearGradient>
<path fill="url(#svg1.SVGID_4_)" d="M19.625,23.313c10.839,0,19.625-1.875,19.625-4.188l-1.229-2c0,2.168-8.235,3.926-18.396,3.926  c-9.481,0-17.396-1.959-18.396-3.926l-1.229,2C0,21.438,8.787,23.313,19.625,23.313z"/>
<path fill="#3C89C9" d="M19.476,13.019c10.161,0,19.625,2.775,19.625,2.775c-0.375,2.721-5.367,5.438-19.555,5.438  c-12.125,0-18.467-2.485-19.541-4.918C-0.277,15.674,9.316,13.019,19.476,13.019z"/>
<linearGradient gradientTransform="matrix(1 0 0 -1 -642.8008 -939.4756)" x1="642.8008" x2="682.0508" gradientUnits="userSpaceOnUse" y1="-952.4946" y2="-952.4946" id="svg1.SVGID_5_">
	<stop offset="0" style="stop-color:#3C89C9"/>
	<stop offset="0.1482" style="stop-color:#60A6DD"/>
	<stop offset="0.3113" style="stop-color:#81C1F0"/>
	<stop offset="0.4476" style="stop-color:#95D1FB"/>
	<stop offset="0.5394" style="stop-color:#9CD7FF"/>
	<stop offset="0.636" style="stop-color:#98D4FD"/>
	<stop offset="0.7293" style="stop-color:#8DCAF6"/>
	<stop offset="0.8214" style="stop-color:#79BBEB"/>
	<stop offset="0.912" style="stop-color:#5EA5DC"/>
	<stop offset="1" style="stop-color:#3C89C9"/>
</linearGradient>
<path fill="url(#svg1.SVGID_5_)" d="M19.625,10.113C8.787,10.113,0,8.238,0,5.925v10c0,2.313,8.787,4.188,19.625,4.188  c10.839,0,19.625-1.875,19.625-4.188v-10C39.25,8.238,30.464,10.113,19.625,10.113z"/>
<linearGradient gradientTransform="matrix(1 0 0 -1 -642.8008 -939.4756)" x1="642.8008" x2="682.0508" gradientUnits="userSpaceOnUse" y1="-946.4946" y2="-946.4946" id="svg1.SVGID_6_">
	<stop offset="0" style="stop-color:#9CD7FF"/>
	<stop offset="0.0039" style="stop-color:#9DD7FF"/>
	<stop offset="0.2273" style="stop-color:#BDE5FF"/>
	<stop offset="0.4138" style="stop-color:#D1EEFF"/>
	<stop offset="0.5394" style="stop-color:#D9F1FF"/>
	<stop offset="0.6155" style="stop-color:#D5EFFE"/>
	<stop offset="0.6891" style="stop-color:#C9E7FA"/>
	<stop offset="0.7617" style="stop-color:#B6DAF3"/>
	<stop offset="0.8337" style="stop-color:#9AC8EA"/>
	<stop offset="0.9052" style="stop-color:#77B0DD"/>
	<stop offset="0.9754" style="stop-color:#4D94CF"/>
	<stop offset="1" style="stop-color:#3C89C9"/>
</linearGradient>
<path fill="url(#svg1.SVGID_6_)" d="M19.625,10.113c10.839,0,19.625-1.875,19.625-4.188l-1.229-2c0,2.168-8.235,3.926-18.396,3.926  c-9.481,0-17.396-1.959-18.396-3.926L0,5.925C0,8.238,8.787,10.113,19.625,10.113z"/>
<linearGradient gradientTransform="matrix(1 0 0 -1 -642.8008 -939.4756)" x1="644.0293" x2="680.8223" gradientUnits="userSpaceOnUse" y1="-943.4014" y2="-943.4014" id="svg1.SVGID_7_">
	<stop offset="0" style="stop-color:#9CD7FF"/>
	<stop offset="1" style="stop-color:#3C89C9"/>
</linearGradient>
<ellipse rx="18.396" fill="url(#svg1.SVGID_7_)" ry="3.926" cx="19.625" cy="3.926"/>
<path fill="#FFFFFF" d="M31.04,45.982c0,0-4.354,0.664-7.29,0.781  c-3.125,0.125-8.952,0-8.952,0l-2.384-10.292l0.044-2.108l-1.251-1.154L9.789,23.024l-0.082-0.119L9.5,20.529l-1.65-1.254  L5.329,8.793c0,0,4.213,0.903,7.234,1.07s8.375,0.25,8.375,0.25l3,9.875l-0.25,1.313l1.063,2.168l2.312,9.645l-0.521,1.416  l1.46,1.834L31.04,45.982z" enable-background="new    " opacity="0.24"/>
</svg>
      </g>
    </g>
    <g text-rendering="geometricPrecision" stroke-miterlimit="1.45" shape-rendering="geometricPrecision" font-family="sans-serif" transform="matrix(1,0,0,1,-333,-189)" stroke-linecap="butt">
      <text x="598.7687" xml:space="preserve" y="706.8593" clip-path="url(#clipPath2)" stroke="none">Archive</text>
      <text x="598.7628" xml:space="preserve" y="720.2655" clip-path="url(#clipPath2)" stroke="none">storage</text>
    </g>
    <g fill="rgb(255,204,0)" text-rendering="geometricPrecision" shape-rendering="geometricPrecision" transform="matrix(1,0,0,1,-333,-189)" stroke="rgb(255,204,0)">
      <path d="M443.7358 239.5521 L458.2359 189.0721 L487.2359 189.0721 L501.736 239.5521 Z" fill-rule="evenodd" clip-path="url(#clipPath2)" stroke="none"/>
    </g>
    <g text-rendering="geometricPrecision" stroke-miterlimit="1.45" shape-rendering="geometricPrecision" transform="matrix(1,0,0,1,-333,-189)" stroke-linecap="butt">
      <path fill="none" d="M443.7358 239.5521 L458.2359 189.0721 L487.2359 189.0721 L501.736 239.5521 Z" fill-rule="evenodd" clip-path="url(#clipPath2)"/>
      <text x="455.0553" xml:space="preserve" y="211.769" clip-path="url(#clipPath2)" font-family="sans-serif" stroke="none">Debug</text>
      <text x="461.401" xml:space="preserve" y="225.1753" clip-path="url(#clipPath2)" font-family="sans-serif" stroke="none">cam</text>
    </g>
    <g text-rendering="geometricPrecision" stroke-miterlimit="1.45" shape-rendering="geometricPrecision" transform="matrix(1,0,0,1,-333,-189)" stroke-linecap="butt">
      <path fill="none" d="M377.508 379.768 L377.508 413.632 L377.508 414.4514 L378.1975 414.8942 L399.3106 428.4524 L399.3106 428.4524 L394.3459 430.9092 L410.3447 433.7554 L410.3447 433.7554 L401.1002 420.3912 L400.9317 425.928 L400.9317 425.928 L380.508 412.8126 L380.508 412.8126 L380.508 379.768 Z" clip-path="url(#clipPath2)"/>
    </g>
    <g text-rendering="geometricPrecision" stroke-miterlimit="1.45" shape-rendering="geometricPrecision" transform="matrix(1,0,0,1,-333,-189)" stroke-linecap="butt">
      <path fill="none" d="M423.856 463.5555 L417.606 478.5555 L422.356 475.7055 L422.356 475.7055 L422.356 475.7055 L422.356 475.7055 L422.356 475.7055 L422.356 475.7055 L422.356 584.972 L422.356 586.472 L528.598 586.472 L525.748 591.222 L540.748 584.972 L525.748 578.722 L528.598 583.472 L425.356 583.472 L425.356 475.7055 L425.356 475.7055 L425.356 475.7055 L425.356 475.7055 L425.356 475.7055 L425.356 475.7055 L430.106 478.5555 L423.856 463.5555 Z" clip-path="url(#clipPath2)"/>
      <text x="432.0791" xml:space="preserve" y="576.1593" clip-path="url(#clipPath2)" font-family="sans-serif" stroke="none">USB</text>
    </g>
    <g text-rendering="geometricPrecision" stroke-miterlimit="1.45" stroke-dasharray="6,2" shape-rendering="geometricPrecision" transform="matrix(1,0,0,1,-333,-189)" stroke-linecap="butt">
      <path fill="none" d="M348.68 291.072 L351.38 295.572 L333.068 295.572 L333.068 296.072 L333.068 442.432 L333.068 442.932 L391.5872 442.932 L388.8872 447.432 L400.8872 442.432 L388.8872 437.432 L391.5872 441.932 L334.068 441.932 L334.068 296.572 L351.38 296.572 L348.68 301.072 L360.68 296.072 L348.68 291.072 Z" clip-path="url(#clipPath2)"/>
    </g>
    <g text-rendering="geometricPrecision" stroke-miterlimit="1.45" shape-rendering="geometricPrecision" transform="matrix(1,0,0,1,-333,-189)" stroke-linecap="butt">
      <path fill="none" d="M573.248 404.7349 L566.998 419.7349 L566.998 419.7349 L571.748 416.8849 L571.748 546.322 L566.998 543.472 L573.248 558.472 L579.498 543.472 L574.748 546.322 L574.748 416.8849 L579.498 419.7349 L579.498 419.7349 L573.248 404.7349 Z" clip-path="url(#clipPath2)"/>
      <text x="590.9111" xml:space="preserve" y="548.929" clip-path="url(#clipPath2)" font-family="sans-serif" stroke="none">USB</text>
    </g>
    <g text-rendering="geometricPrecision" stroke-miterlimit="1.45" shape-rendering="geometricPrecision" transform="matrix(1,0,0,1,-333,-189)" stroke-linecap="butt">
      <path fill="none" d="M709.1929 371.0737 L605.9741 370.4164" clip-path="url(#clipPath2)"/>
      <path d="M597.9743 370.3655 L609.9422 375.4418 L606.9741 370.4228 L610.0059 365.442 Z" clip-path="url(#clipPath2)" stroke="none"/>
      <text x="645.9091" xml:space="preserve" y="364.1096" clip-path="url(#clipPath2)" font-family="sans-serif" stroke="none">5V</text>
      <path fill="none" d="M758.949 353.8627 L758.8574 346.5305 L756.683 327.8476 L754.3145 320.5473 L750.7811 314.4607 L745.85 309.4773 L739.288 305.487 L730.8623 302.3793 L720.3399 300.0439 L692.073 297.2489 L652.6237 296.2191 L633.3761 296.1652" clip-path="url(#clipPath2)"/>
      <path d="M625.3762 296.1427 L637.3621 301.1764 L634.3761 296.168 L637.3901 291.1764 Z" clip-path="url(#clipPath2)" stroke="none"/>
      <text x="751.8292" xml:space="preserve" y="293.529" clip-path="url(#clipPath2)" font-family="sans-serif" stroke="none">5V</text>
      <text x="748.4922" xml:space="preserve" y="306.9353" clip-path="url(#clipPath2)" font-family="sans-serif" stroke="none">12V</text>
      <path fill="none" d="M759.132 388.9821 L759.0235 441.8901 L758.0117 494.8679 L755.2653 532.8284 L752.9706 546.9594 L749.917 558.2745 L745.9962 567.0867 L741.0997 573.709 L735.119 578.454 L727.9459 581.6348 L719.9742 583.4497 L719.8747 583.4597" clip-path="url(#clipPath2)"/>
      <path d="M711.9213 584.3218 L724.3902 587.9995 L720.8688 583.3519 L723.3126 578.0577 Z" clip-path="url(#clipPath2)" stroke="none"/>
      <text x="748.4922" xml:space="preserve" y="589.1321" clip-path="url(#clipPath2)" font-family="sans-serif" stroke="none">12V</text>
      <path fill="none" d="M658.32 584.972 L613.748 584.972" clip-path="url(#clipPath2)"/>
      <path d="M605.748 584.972 L617.748 589.972 L614.748 584.972 L617.748 579.972 Z" clip-path="url(#clipPath2)" stroke="none"/>
      <text x="620.7117" xml:space="preserve" y="599.4521" clip-path="url(#clipPath2)" font-family="sans-serif" stroke="none">19V</text>
    </g>
    <g text-rendering="geometricPrecision" stroke-miterlimit="1.45" shape-rendering="geometricPrecision" transform="matrix(1,0,0,1,-333,-189)" stroke-linecap="butt">
      <path fill="none" d="M556.3046 611.472 L542.9587 620.7429 L548.4958 620.9005 L548.4958 620.9005 L532.0609 646.6053 L532.0609 646.6053 L529.5943 641.6455 L526.7797 657.6499 L540.1257 648.379 L534.5885 648.2214 L534.5885 648.2214 L551.0235 622.5165 L553.4902 627.4764 L556.3046 611.472 Z" clip-path="url(#clipPath2)"/>
      <text x="496.5573" xml:space="preserve" y="634.0918" clip-path="url(#clipPath2)" font-family="sans-serif" stroke="none">USB</text>
    </g>
    <g text-rendering="geometricPrecision" stroke-miterlimit="1.45" shape-rendering="geometricPrecision" transform="matrix(1,0,0,1,-333,-189)" stroke-linecap="butt">
      <path fill="none" d="M529.316 528.3096 L533.5678 543.9935 L535.5754 538.8307 L535.5754 538.8307 L544.0717 549.7891 L544.0717 549.7891 L538.5715 550.4472 L552.7018 558.472 L548.4501 542.788 L546.4425 547.9509 L537.9462 536.9925 L537.9462 536.9925 L543.4464 536.3344 L529.316 528.3096 Z" clip-path="url(#clipPath2)"/>
    </g>
    <g text-rendering="geometricPrecision" stroke-miterlimit="1.45" shape-rendering="geometricPrecision" transform="matrix(1,0,0,1,-333,-189)" stroke-linecap="butt">
      <path fill="none" d="M559.888 289.822 L562.738 294.572 L516.312 294.572 L516.312 296.072 L516.312 486.328 L511.562 483.478 L517.812 498.478 L524.062 483.478 L519.312 486.328 L519.312 297.572 L562.738 297.572 L559.888 302.322 L574.888 296.072 L559.888 289.822 Z" clip-path="url(#clipPath2)"/>
      <text x="520.5462" xml:space="preserve" y="290.0721" clip-path="url(#clipPath2)" font-family="sans-serif" stroke="none">SATA</text>
    </g>
    <g text-rendering="geometricPrecision" stroke-miterlimit="1.45" shape-rendering="geometricPrecision" transform="matrix(1,0,0,1,-333,-189)" stroke-linecap="butt">
      <path fill="none" d="M588.0369 611.472 L589.889 627.6161 L592.648 622.8126 L599.0121 634.2164 L599.0121 634.2164 L593.4755 634.0425 L606.2429 644.0951 L604.3907 627.951 L601.6318 632.7545 L601.6318 632.7545 L595.2676 621.3507 L595.2676 621.3507 L600.8043 621.5246 L588.0369 611.472 Z" clip-path="url(#clipPath2)"/>
    </g>
    <g text-rendering="geometricPrecision" stroke-miterlimit="1.45" shape-rendering="geometricPrecision" transform="matrix(1,0,0,1,-333,-189)" stroke-linecap="butt">
      <path fill="none" d="M473.0265 239.5219 L466.9498 254.593 L471.6666 251.6884 L471.6666 251.6884 L475.2361 561.4213 L475.2495 562.585 L476.3802 562.8611 L528.589 575.6105 L528.589 575.6105 L524.6935 579.5488 L540.748 577.0356 L527.6588 567.4056 L529.3007 572.6962 L529.3007 572.6962 L478.2225 560.223 L478.2225 560.223 L474.6664 251.6539 L479.4489 254.4489 L479.4489 254.4489 L473.0265 239.5219 Z" clip-path="url(#clipPath2)"/>
    </g>
  </g>
</svg>
