<?xml version="1.0" encoding="UTF-8"?><svg xmlns="http://www.w3.org/2000/svg" xmlns:xlink="http://www.w3.org/1999/xlink" fill-opacity="1" color-rendering="auto" color-interpolation="auto" text-rendering="auto" stroke="black" stroke-linecap="square" width="492" stroke-miterlimit="10" shape-rendering="auto" stroke-opacity="1" fill="black" stroke-dasharray="none" font-weight="normal" stroke-width="1" height="528" font-family="'Dialog'" font-style="normal" stroke-linejoin="miter" font-size="12px" stroke-dashoffset="0" image-rendering="auto">
  <!--Generated by ySVG 2.5-->
  <defs id="genericDefs"/>
  <g>
    <g fill="white" text-rendering="geometricPrecision" shape-rendering="geometricPrecision" transform="translate(-258,-173)" stroke="white">
      <rect x="258" width="492" height="528" y="173" clip-path="url(#clipPath2)" stroke="none"/>
    </g>
    <g fill="rgb(255,204,0)" text-rendering="geometricPrecision" shape-rendering="geometricPrecision" transform="matrix(1,0,0,1,-258,-173)" stroke="rgb(255,204,0)">
      <rect x="445.5" y="545.28" clip-path="url(#clipPath2)" width="78" rx="4" ry="4" height="50" stroke="none"/>
    </g>
    <g text-rendering="geometricPrecision" stroke-miterlimit="1.45" shape-rendering="geometricPrecision" transform="matrix(1,0,0,1,-258,-173)" stroke-linecap="butt">
      <rect x="445.5" y="545.28" clip-path="url(#clipPath2)" fill="none" width="78" rx="4" ry="4" height="50"/>
      <text x="464.0273" xml:space="preserve" y="574.4343" clip-path="url(#clipPath2)" font-family="sans-serif" stroke="none">kektop</text>
    </g>
    <g text-rendering="geometricPrecision" shape-rendering="geometricPrecision" transform="matrix(1,0,0,1,156.875,456.44)">
      <g clip-path="url(#clipPath3)">
        <svg xml:space="preserve" opacity="1" writing-mode="lr-tb" stop-color="rgb(0, 0, 0)" shape-rendering="auto" glyph-orientation-horizontal="0deg" color-profile="auto" lighting-color="rgb(255, 255, 255)" color="rgb(0, 0, 0)" font-weight="400" alignment-baseline="auto" font-style="normal" version="1.1" color-interpolation-filters="linearrgb" text-anchor="start" stroke-linecap="butt" color-interpolation="srgb" font-variant="normal" word-spacing="normal" fill-opacity="1" text-rendering="auto" clip-path="none" text-decoration="none" letter-spacing="normal" viewBox="0 0 40 48" glyph-orientation-vertical="auto" display="inline" font-size-adjust="none" overflow="visible" fill="rgb(0, 0, 0)" font-stretch="normal" stroke-dasharray="none" stroke-miterlimit="4" stop-opacity="1" color-rendering="auto" font-size="12" pointer-events="visiblepainted" mask="none" direction="ltr" baseline-shift="baseline" enable-background="new 0 0 40 48" fill-rule="nonzero" image-rendering="auto" stroke-dashoffset="0" width="40px" marker-end="none" clip="auto" cursor="auto" stroke="none" filter="none" visibility="visible" kerning="auto" stroke-width="1" font-family="&quot;Arial&quot;,&quot;Helvetica&quot;,sans-serif" flood-opacity="1" clip-rule="nonzero" src="none" height="48px" unicode-bidi="normal" stroke-linejoin="miter" stroke-opacity="1" flood-color="rgb(0, 0, 0)" dominant-baseline="auto" marker-start="none" x="0px" marker-mid="none" y="0px">
<defs>
<clipPath clipPathUnits="userSpaceOnUse" id="clipPath1">
              <path d="M0 0 L492 0 L492 528 L0 528 L0 0 Z"/>
            </clipPath>
            <clipPath clipPathUnits="userSpaceOnUse" id="clipPath2">
              <path d="M258 173 L750 173 L750 701 L258 701 L258 173 Z"/>
            </clipPath>
            <clipPath clipPathUnits="userSpaceOnUse" id="clipPath3">
              <path d="M-156.875 -456.44 L335.125 -456.44 L335.125 71.56 L-156.875 71.56 L-156.875 -456.44 Z"/>
            </clipPath>
          </defs>
<linearGradient gradientTransform="matrix(1 0 0 1 -370.2002 -614.5742)" x1="370.2002" x2="409.4502" gradientUnits="userSpaceOnUse" y1="655.0938" y2="655.0938" id="svg1.SVGID_1_">
	<stop offset="0" style="stop-color:#4D4D4D"/>
	<stop offset="0.0558" style="stop-color:#5F5F5F"/>
	<stop offset="0.2103" style="stop-color:#8D8D8D"/>
	<stop offset="0.3479" style="stop-color:#AEAEAE"/>
	<stop offset="0.4623" style="stop-color:#C2C2C2"/>
	<stop offset="0.5394" style="stop-color:#C9C9C9"/>
	<stop offset="0.6247" style="stop-color:#C5C5C5"/>
	<stop offset="0.7072" style="stop-color:#BABABA"/>
	<stop offset="0.7885" style="stop-color:#A6A6A6"/>
	<stop offset="0.869" style="stop-color:#8B8B8B"/>
	<stop offset="0.9484" style="stop-color:#686868"/>
	<stop offset="1" style="stop-color:#4D4D4D"/>
</linearGradient>
<path fill="url(#svg1.SVGID_1_)" d="M19.625,37.613C8.787,37.613,0,35.738,0,33.425v10c0,2.313,8.787,4.188,19.625,4.188  c10.839,0,19.625-1.875,19.625-4.188v-10C39.25,35.738,30.464,37.613,19.625,37.613z"/>
<linearGradient gradientTransform="matrix(1 0 0 1 -370.2002 -614.5742)" x1="370.2002" x2="409.4502" gradientUnits="userSpaceOnUse" y1="649.0938" y2="649.0938" id="svg1.SVGID_2_">
	<stop offset="0" style="stop-color:#B3B3B3"/>
	<stop offset="0.0171" style="stop-color:#B6B6B6"/>
	<stop offset="0.235" style="stop-color:#D7D7D7"/>
	<stop offset="0.4168" style="stop-color:#EBEBEB"/>
	<stop offset="0.5394" style="stop-color:#F2F2F2"/>
	<stop offset="0.6579" style="stop-color:#EEEEEE"/>
	<stop offset="0.7724" style="stop-color:#E3E3E3"/>
	<stop offset="0.8853" style="stop-color:#CFCFCF"/>
	<stop offset="0.9965" style="stop-color:#B4B4B4"/>
	<stop offset="1" style="stop-color:#B3B3B3"/>
</linearGradient>
<path fill="url(#svg1.SVGID_2_)" d="M19.625,37.613c10.839,0,19.625-1.875,19.625-4.188l-1.229-2c0,2.168-8.235,3.927-18.396,3.927  c-9.481,0-17.396-1.959-18.396-3.927l-1.229,2C0,35.738,8.787,37.613,19.625,37.613z"/>
<linearGradient gradientTransform="matrix(1 0 0 1 -370.2002 -614.5742)" x1="371.4297" x2="408.2217" gradientUnits="userSpaceOnUse" y1="646" y2="646" id="svg1.SVGID_3_">
	<stop offset="0" style="stop-color:#C9C9C9"/>
	<stop offset="1" style="stop-color:#808080"/>
</linearGradient>
<ellipse rx="18.396" fill="url(#svg1.SVGID_3_)" ry="3.926" cx="19.625" cy="31.425"/>
<linearGradient gradientTransform="matrix(1 0 0 1 -370.2002 -614.5742)" x1="370.2002" x2="409.4502" gradientUnits="userSpaceOnUse" y1="641.0938" y2="641.0938" id="svg1.SVGID_4_">
	<stop offset="0" style="stop-color:#4D4D4D"/>
	<stop offset="0.0558" style="stop-color:#5F5F5F"/>
	<stop offset="0.2103" style="stop-color:#8D8D8D"/>
	<stop offset="0.3479" style="stop-color:#AEAEAE"/>
	<stop offset="0.4623" style="stop-color:#C2C2C2"/>
	<stop offset="0.5394" style="stop-color:#C9C9C9"/>
	<stop offset="0.6247" style="stop-color:#C5C5C5"/>
	<stop offset="0.7072" style="stop-color:#BABABA"/>
	<stop offset="0.7885" style="stop-color:#A6A6A6"/>
	<stop offset="0.869" style="stop-color:#8B8B8B"/>
	<stop offset="0.9484" style="stop-color:#686868"/>
	<stop offset="1" style="stop-color:#4D4D4D"/>
</linearGradient>
<path fill="url(#svg1.SVGID_4_)" d="M19.625,23.613C8.787,23.613,0,21.738,0,19.425v10c0,2.313,8.787,4.188,19.625,4.188  c10.839,0,19.625-1.875,19.625-4.188v-10C39.25,21.738,30.464,23.613,19.625,23.613z"/>
<linearGradient gradientTransform="matrix(1 0 0 1 -370.2002 -614.5742)" x1="370.2002" x2="409.4502" gradientUnits="userSpaceOnUse" y1="635.0938" y2="635.0938" id="svg1.SVGID_5_">
	<stop offset="0" style="stop-color:#B3B3B3"/>
	<stop offset="0.0171" style="stop-color:#B6B6B6"/>
	<stop offset="0.235" style="stop-color:#D7D7D7"/>
	<stop offset="0.4168" style="stop-color:#EBEBEB"/>
	<stop offset="0.5394" style="stop-color:#F2F2F2"/>
	<stop offset="0.6579" style="stop-color:#EEEEEE"/>
	<stop offset="0.7724" style="stop-color:#E3E3E3"/>
	<stop offset="0.8853" style="stop-color:#CFCFCF"/>
	<stop offset="0.9965" style="stop-color:#B4B4B4"/>
	<stop offset="1" style="stop-color:#B3B3B3"/>
</linearGradient>
<path fill="url(#svg1.SVGID_5_)" d="M19.625,23.613c10.839,0,19.625-1.875,19.625-4.188l-1.229-2c0,2.168-8.235,3.926-18.396,3.926  c-9.481,0-17.396-1.959-18.396-3.926l-1.229,2C0,21.738,8.787,23.613,19.625,23.613z"/>
<linearGradient gradientTransform="matrix(1 0 0 1 -370.2002 -614.5742)" x1="371.4297" x2="408.2217" gradientUnits="userSpaceOnUse" y1="632" y2="632" id="svg1.SVGID_6_">
	<stop offset="0" style="stop-color:#C9C9C9"/>
	<stop offset="1" style="stop-color:#808080"/>
</linearGradient>
<ellipse rx="18.396" fill="url(#svg1.SVGID_6_)" ry="3.926" cx="19.625" cy="17.426"/>
<linearGradient gradientTransform="matrix(1 0 0 1 -370.2002 -614.5742)" x1="370.2002" x2="409.4502" gradientUnits="userSpaceOnUse" y1="627.5938" y2="627.5938" id="svg1.SVGID_7_">
	<stop offset="0" style="stop-color:#4D4D4D"/>
	<stop offset="0.0558" style="stop-color:#5F5F5F"/>
	<stop offset="0.2103" style="stop-color:#8D8D8D"/>
	<stop offset="0.3479" style="stop-color:#AEAEAE"/>
	<stop offset="0.4623" style="stop-color:#C2C2C2"/>
	<stop offset="0.5394" style="stop-color:#C9C9C9"/>
	<stop offset="0.6247" style="stop-color:#C5C5C5"/>
	<stop offset="0.7072" style="stop-color:#BABABA"/>
	<stop offset="0.7885" style="stop-color:#A6A6A6"/>
	<stop offset="0.869" style="stop-color:#8B8B8B"/>
	<stop offset="0.9484" style="stop-color:#686868"/>
	<stop offset="1" style="stop-color:#4D4D4D"/>
</linearGradient>
<path fill="url(#svg1.SVGID_7_)" d="M19.625,10.113C8.787,10.113,0,8.238,0,5.925v10c0,2.313,8.787,4.188,19.625,4.188  c10.839,0,19.625-1.875,19.625-4.188v-10C39.25,8.238,30.464,10.113,19.625,10.113z"/>
<linearGradient gradientTransform="matrix(1 0 0 1 -370.2002 -614.5742)" x1="370.2002" x2="409.4502" gradientUnits="userSpaceOnUse" y1="621.5938" y2="621.5938" id="svg1.SVGID_8_">
	<stop offset="0" style="stop-color:#B3B3B3"/>
	<stop offset="0.0171" style="stop-color:#B6B6B6"/>
	<stop offset="0.235" style="stop-color:#D7D7D7"/>
	<stop offset="0.4168" style="stop-color:#EBEBEB"/>
	<stop offset="0.5394" style="stop-color:#F2F2F2"/>
	<stop offset="0.6579" style="stop-color:#EEEEEE"/>
	<stop offset="0.7724" style="stop-color:#E3E3E3"/>
	<stop offset="0.8853" style="stop-color:#CFCFCF"/>
	<stop offset="0.9965" style="stop-color:#B4B4B4"/>
	<stop offset="1" style="stop-color:#B3B3B3"/>
</linearGradient>
<path fill="url(#svg1.SVGID_8_)" d="M19.625,10.113c10.839,0,19.625-1.875,19.625-4.188l-1.229-2c0,2.168-8.235,3.926-18.396,3.926  c-9.481,0-17.396-1.959-18.396-3.926L0,5.925C0,8.238,8.787,10.113,19.625,10.113z"/>
<linearGradient gradientTransform="matrix(1 0 0 1 -370.2002 -614.5742)" x1="371.4297" x2="408.2217" gradientUnits="userSpaceOnUse" y1="618.5" y2="618.5" id="svg1.SVGID_9_">
	<stop offset="0" style="stop-color:#C9C9C9"/>
	<stop offset="1" style="stop-color:#808080"/>
</linearGradient>
<ellipse rx="18.396" fill="url(#svg1.SVGID_9_)" ry="3.926" cx="19.625" cy="3.926"/>
<path fill="#FFFFFF" d="M31.291,46.792c0,0-4.313,0.578-7.249,0.694  C20.917,47.613,15,47.613,15,47.613l-2.443-10.279l-0.119-2.283l-1.231-1.842L9.789,23.024l-0.082-0.119L9.3,20.715l-1.45-1.44  L5.329,8.793c0,0,5.296,0.882,7.234,1.07s8.375,0.25,8.375,0.25l3,9.875l-0.25,1.313l1.063,2.168l2.312,9.644l-0.375,1.875  l1.627,2.193L31.291,46.792z" enable-background="new    " opacity="0.24"/>
</svg>
      </g>
    </g>
    <g text-rendering="geometricPrecision" stroke-miterlimit="1.45" shape-rendering="geometricPrecision" font-family="sans-serif" transform="matrix(1,0,0,1,-258,-173)" stroke-linecap="butt">
      <text x="398.623" xml:space="preserve" y="694.1917" clip-path="url(#clipPath2)" stroke="none">500GB HDD</text>
    </g>
    <g fill="rgb(255,204,0)" text-rendering="geometricPrecision" shape-rendering="geometricPrecision" transform="matrix(1,0,0,1,-258,-173)" stroke="rgb(255,204,0)">
      <circle r="15" clip-path="url(#clipPath2)" cx="661.1701" cy="189.8698" stroke="none"/>
    </g>
    <g text-rendering="geometricPrecision" stroke-miterlimit="1.45" shape-rendering="geometricPrecision" transform="matrix(1,0,0,1,-258,-173)" stroke-linecap="butt">
      <circle fill="none" r="15" clip-path="url(#clipPath2)" cx="661.1701" cy="189.8698"/>
      <text x="649.0939" xml:space="preserve" y="194.0241" clip-path="url(#clipPath2)" font-family="sans-serif" stroke="none">GPS</text>
      <path fill="none" d="M469.4365 595.2753 L448.2324 630.46" clip-path="url(#clipPath2)"/>
    </g>
    <g fill="rgb(245,245,245)" text-rendering="geometricPrecision" shape-rendering="geometricPrecision" transform="matrix(1,0,0,1,-258,-173)" stroke="rgb(245,245,245)">
      <rect x="392" y="223.3739" clip-path="url(#clipPath2)" width="185" rx="4" ry="4" height="261.1999" stroke="none"/>
      <rect x="392" y="223.3739" clip-path="url(#clipPath2)" fill="rgb(235,235,235)" width="185" height="21.4609" stroke="none"/>
    </g>
    <g font-size="15px" stroke-linecap="butt" transform="matrix(1,0,0,1,-258,-173)" text-rendering="geometricPrecision" font-family="sans-serif" shape-rendering="geometricPrecision" stroke-miterlimit="1.45">
      <text x="469.9854" xml:space="preserve" y="239.2973" clip-path="url(#clipPath2)" stroke="none">Whitestar box</text>
      <rect x="392" y="223.3739" clip-path="url(#clipPath2)" fill="none" width="185" stroke-dasharray="6,2" rx="4" ry="4" height="261.1999"/>
    </g>
    <g fill="rgb(255,204,0)" text-rendering="geometricPrecision" shape-rendering="geometricPrecision" transform="matrix(1,0,0,1,-258,-173)" stroke="rgb(255,204,0)">
      <rect x="407" y="332" clip-path="url(#clipPath2)" width="55" rx="4" ry="4" height="47.613" stroke="none"/>
    </g>
    <g text-rendering="geometricPrecision" stroke-miterlimit="1.45" shape-rendering="geometricPrecision" transform="matrix(1,0,0,1,-258,-173)" stroke-linecap="butt">
      <rect x="407" y="332" clip-path="url(#clipPath2)" fill="none" width="55" rx="4" ry="4" height="47.613"/>
      <text x="422.9395" xml:space="preserve" y="352.9764" clip-path="url(#clipPath2)" font-family="sans-serif" stroke="none">Alfa</text>
      <text x="416.251" xml:space="preserve" y="366.9452" clip-path="url(#clipPath2)" font-family="sans-serif" stroke="none">WUSB</text>
    </g>
    <g fill="rgb(255,204,0)" text-rendering="geometricPrecision" shape-rendering="geometricPrecision" transform="matrix(1,0,0,1,-258,-173)" stroke="rgb(255,204,0)">
      <rect x="507" y="332" clip-path="url(#clipPath2)" width="55" rx="4" ry="4" height="47.613" stroke="none"/>
    </g>
    <g text-rendering="geometricPrecision" stroke-miterlimit="1.45" shape-rendering="geometricPrecision" transform="matrix(1,0,0,1,-258,-173)" stroke-linecap="butt">
      <rect x="507" y="332" clip-path="url(#clipPath2)" fill="none" width="55" rx="4" ry="4" height="47.613"/>
      <text x="509.4512" xml:space="preserve" y="352.9764" clip-path="url(#clipPath2)" font-family="sans-serif" stroke="none">Ubiquity</text>
      <text x="518.8877" xml:space="preserve" y="366.9452" clip-path="url(#clipPath2)" font-family="sans-serif" stroke="none">SR71</text>
    </g>
    <g fill="rgb(255,204,0)" text-rendering="geometricPrecision" shape-rendering="geometricPrecision" transform="matrix(1,0,0,1,-258,-173)" stroke="rgb(255,204,0)">
      <path d="M547 261.36 L562 261.36 L554.5 276.1556 Z" fill-rule="evenodd" clip-path="url(#clipPath2)" stroke="none"/>
    </g>
    <g text-rendering="geometricPrecision" stroke-miterlimit="1.45" shape-rendering="geometricPrecision" transform="matrix(1,0,0,1,-258,-173)" stroke-linecap="butt">
      <path fill="none" d="M547 261.36 L562 261.36 L554.5 276.1556 Z" fill-rule="evenodd" clip-path="url(#clipPath2)"/>
    </g>
    <g fill="rgb(255,204,0)" text-rendering="geometricPrecision" shape-rendering="geometricPrecision" transform="matrix(1,0,0,1,-258,-173)" stroke="rgb(255,204,0)">
      <path d="M507 261.36 L522 261.36 L514.5 276.1556 Z" fill-rule="evenodd" clip-path="url(#clipPath2)" stroke="none"/>
    </g>
    <g text-rendering="geometricPrecision" stroke-miterlimit="1.45" shape-rendering="geometricPrecision" transform="matrix(1,0,0,1,-258,-173)" stroke-linecap="butt">
      <path fill="none" d="M507 261.36 L522 261.36 L514.5 276.1556 Z" fill-rule="evenodd" clip-path="url(#clipPath2)"/>
    </g>
    <g fill="rgb(255,204,0)" text-rendering="geometricPrecision" shape-rendering="geometricPrecision" transform="matrix(1,0,0,1,-258,-173)" stroke="rgb(255,204,0)">
      <path d="M427 259.8349 L442 259.8349 L434.5 274.6305 Z" fill-rule="evenodd" clip-path="url(#clipPath2)" stroke="none"/>
    </g>
    <g text-rendering="geometricPrecision" stroke-miterlimit="1.45" shape-rendering="geometricPrecision" transform="matrix(1,0,0,1,-258,-173)" stroke-linecap="butt">
      <path fill="none" d="M427 259.8349 L442 259.8349 L434.5 274.6305 Z" fill-rule="evenodd" clip-path="url(#clipPath2)"/>
    </g>
    <g fill="rgb(255,204,0)" text-rendering="geometricPrecision" shape-rendering="geometricPrecision" transform="matrix(1,0,0,1,-258,-173)" stroke="rgb(255,204,0)">
      <path d="M457 444.0778 L484.5 418.5818 L512 444.0778 L484.5 469.5738 Z" fill-rule="evenodd" clip-path="url(#clipPath2)" stroke="none"/>
    </g>
    <g text-rendering="geometricPrecision" stroke-miterlimit="1.45" shape-rendering="geometricPrecision" transform="matrix(1,0,0,1,-258,-173)" stroke-linecap="butt">
      <path fill="none" d="M457 444.0778 L484.5 418.5818 L512 444.0778 L484.5 469.5738 Z" fill-rule="evenodd" clip-path="url(#clipPath2)"/>
      <text x="472.1836" xml:space="preserve" y="441.2477" clip-path="url(#clipPath2)" font-family="sans-serif" stroke="none">USB</text>
      <text x="473.0859" xml:space="preserve" y="455.2165" clip-path="url(#clipPath2)" font-family="sans-serif" stroke="none">hub</text>
    </g>
    <g fill="rgb(255,204,0)" text-rendering="geometricPrecision" shape-rendering="geometricPrecision" transform="matrix(1,0,0,1,-258,-173)" stroke="rgb(255,204,0)">
      <rect x="259.14" y="511.12" clip-path="url(#clipPath2)" width="55" rx="4" ry="4" height="118.32" stroke="none"/>
    </g>
    <g text-rendering="geometricPrecision" stroke-miterlimit="1.45" shape-rendering="geometricPrecision" transform="matrix(1,0,0,1,-258,-173)" stroke-linecap="butt">
      <rect x="259.14" y="511.12" clip-path="url(#clipPath2)" fill="none" width="55" rx="4" ry="4" height="118.32"/>
      <text x="263.8324" xml:space="preserve" y="574.4343" clip-path="url(#clipPath2)" font-family="sans-serif" stroke="none">Monitor</text>
    </g>
    <g fill="rgb(255,204,0)" text-rendering="geometricPrecision" shape-rendering="geometricPrecision" transform="matrix(1,0,0,1,-258,-173)" stroke="rgb(255,204,0)">
      <path d="M583.7764 555.28 L633.2764 555.28 L627.7764 570.28 L633.2764 585.28 L583.7764 585.28 L578.2764 570.28 Z" fill-rule="evenodd" clip-path="url(#clipPath2)" stroke="none"/>
    </g>
    <g text-rendering="geometricPrecision" stroke-miterlimit="1.45" shape-rendering="geometricPrecision" transform="matrix(1,0,0,1,-258,-173)" stroke-linecap="butt">
      <path fill="none" d="M583.7764 555.28 L633.2764 555.28 L627.7764 570.28 L633.2764 585.28 L583.7764 585.28 L578.2764 570.28 Z" fill-rule="evenodd" clip-path="url(#clipPath2)"/>
      <text x="586.3965" xml:space="preserve" y="574.4343" clip-path="url(#clipPath2)" font-family="sans-serif" stroke="none">X6009</text>
    </g>
    <g fill="rgb(255,204,0)" text-rendering="geometricPrecision" shape-rendering="geometricPrecision" transform="matrix(1,0,0,1,-258,-173)" stroke="rgb(255,204,0)">
      <path d="M670.3859 571.9695 L709.3859 546.4735 L748.3859 571.9695 L709.3859 597.4655 Z" fill-rule="evenodd" clip-path="url(#clipPath2)" stroke="none"/>
    </g>
    <g text-rendering="geometricPrecision" stroke-miterlimit="1.45" shape-rendering="geometricPrecision" transform="matrix(1,0,0,1,-258,-173)" stroke-linecap="butt">
      <path fill="none" d="M670.3859 571.9695 L709.3859 546.4735 L748.3859 571.9695 L709.3859 597.4655 Z" fill-rule="evenodd" clip-path="url(#clipPath2)"/>
      <text x="695.7394" xml:space="preserve" y="576.1238" clip-path="url(#clipPath2)" font-family="sans-serif" stroke="none">12 V</text>
    </g>
    <g fill="rgb(255,204,0)" text-rendering="geometricPrecision" shape-rendering="geometricPrecision" transform="matrix(1,0,0,1,-258,-173)" stroke="rgb(255,204,0)">
      <path d="M583.7764 629.44 L633.2764 629.44 L627.7764 644.44 L633.2764 659.44 L583.7764 659.44 L578.2764 644.44 Z" fill-rule="evenodd" clip-path="url(#clipPath2)" stroke="none"/>
    </g>
    <g text-rendering="geometricPrecision" stroke-miterlimit="1.45" shape-rendering="geometricPrecision" transform="matrix(1,0,0,1,-258,-173)" stroke-linecap="butt">
      <path fill="none" d="M583.7764 629.44 L633.2764 629.44 L627.7764 644.44 L633.2764 659.44 L583.7764 659.44 L578.2764 644.44 Z" fill-rule="evenodd" clip-path="url(#clipPath2)"/>
      <text x="582.0137" xml:space="preserve" y="641.6099" clip-path="url(#clipPath2)" font-family="sans-serif" stroke="none">ELM327</text>
      <text x="591.3301" xml:space="preserve" y="655.5787" clip-path="url(#clipPath2)" font-family="sans-serif" stroke="none">iface</text>
    </g>
    <g fill="rgb(255,204,0)" text-rendering="geometricPrecision" shape-rendering="geometricPrecision" transform="matrix(1,0,0,1,-258,-173)" stroke="rgb(255,204,0)">
      <path d="M670.3859 644.44 L709.3859 615.3855 L748.3859 644.44 L709.3859 673.4945 Z" fill-rule="evenodd" clip-path="url(#clipPath2)" stroke="none"/>
    </g>
    <g text-rendering="geometricPrecision" stroke-miterlimit="1.45" shape-rendering="geometricPrecision" transform="matrix(1,0,0,1,-258,-173)" stroke-linecap="butt">
      <path fill="none" d="M670.3859 644.44 L709.3859 615.3855 L748.3859 644.44 L709.3859 673.4945 Z" fill-rule="evenodd" clip-path="url(#clipPath2)"/>
      <text x="690.2228" xml:space="preserve" y="641.6099" clip-path="url(#clipPath2)" font-family="sans-serif" stroke="none">OBD-II</text>
      <text x="697.0871" xml:space="preserve" y="655.5787" clip-path="url(#clipPath2)" font-family="sans-serif" stroke="none">port</text>
    </g>
    <g fill="rgb(255,204,0)" text-rendering="geometricPrecision" shape-rendering="geometricPrecision" transform="matrix(1,0,0,1,-258,-173)" stroke="rgb(255,204,0)">
      <circle r="15" clip-path="url(#clipPath2)" cx="308.3402" cy="189.8698" stroke="none"/>
    </g>
    <g text-rendering="geometricPrecision" stroke-miterlimit="1.45" shape-rendering="geometricPrecision" transform="matrix(1,0,0,1,-258,-173)" stroke-linecap="butt">
      <circle fill="none" r="15" clip-path="url(#clipPath2)" cx="308.3402" cy="189.8698"/>
      <text x="299.8734" xml:space="preserve" y="194.0241" clip-path="url(#clipPath2)" font-family="sans-serif" stroke="none">3G</text>
      <path fill="none" d="M544.3123 332.0126 L546.0625 327.7686 L552 309.3551 L554.1875 292.4051 L554.4042 276.009" clip-path="url(#clipPath2)"/>
      <path fill="none" d="M524.2586 332.017 L522.9375 328.9482 L517 310.9279 L514.8125 293.5847 L514.5909 275.9828" clip-path="url(#clipPath2)"/>
      <path fill="none" d="M434.5 331.9763 L434.5 274.6618" clip-path="url(#clipPath2)"/>
      <path fill="none" d="M484.5 545.2922 L484.5 469.5297" clip-path="url(#clipPath2)"/>
      <path fill="none" d="M493.9482 427.3976 L521.0157 379.612" clip-path="url(#clipPath2)"/>
      <path fill="none" d="M475.0518 427.3976 L447.9843 379.612" clip-path="url(#clipPath2)"/>
      <path fill="none" d="M503.3783 436.1126 L542.8149 419.4733 L586.6374 398.7778 L603.7609 388.965 L618.0378 379.0123 L629.7266 368.5474 L639.0864 357.1978 L646.3757 344.5913 L651.8535 330.3553 L655.7786 314.1176 L658.4096 295.5058 L660.8251 249.6703 L661.0375 212.849" clip-path="url(#clipPath2)"/>
      <path d="M661.0837 204.8492 L656.0145 216.8201 L661.0317 213.849 L666.0144 216.8778 Z" clip-path="url(#clipPath2)" stroke="none"/>
      <text x="648.8537" xml:space="preserve" y="374.7601" clip-path="url(#clipPath2)" font-family="sans-serif" stroke="none">USB</text>
      <path fill="none" d="M445.5173 570.28 L314.141 570.28" clip-path="url(#clipPath2)"/>
      <path fill="none" d="M578.2701 570.28 L531.4641 570.28" clip-path="url(#clipPath2)"/>
      <path d="M523.4641 570.28 L535.4641 575.28 L532.4641 570.28 L535.4641 565.28 Z" clip-path="url(#clipPath2)" stroke="none"/>
      <text x="539.1489" xml:space="preserve" y="563.45" clip-path="url(#clipPath2)" font-family="sans-serif" stroke="none">19V</text>
      <path fill="none" d="M671.3165 571.3488 L635.8887 570.771" clip-path="url(#clipPath2)"/>
      <path d="M627.8897 570.6406 L639.8066 575.8356 L636.8885 570.7873 L639.9696 565.8369 Z" clip-path="url(#clipPath2)" stroke="none"/>
      <path fill="none" d="M498.8996 595.2975 L510.0947 613.1537 L520.5201 626.3345 L531.2593 635.17 L543.7332 640.5292 L559.3632 643.2812 L578.347 644.2338" clip-path="url(#clipPath2)"/>
      <path fill="none" d="M627.7579 644.44 L670.3655 644.44" clip-path="url(#clipPath2)"/>
      <path fill="none" d="M445.4628 560.4767 L438.7106 558.7811 L420.0399 552.791 L403.8412 545.8973 L389.8564 537.5431 L377.8275 527.1709 L367.4964 514.2235 L358.605 498.1437 L350.8954 478.3743 L344.1094 454.358 L337.9891 425.5375 L332.2763 391.3557 L321.0414 304.679 L310.8665 212.705" clip-path="url(#clipPath2)"/>
      <path d="M309.9868 204.7535 L306.3366 217.2305 L310.9764 213.6989 L316.276 216.131 Z" clip-path="url(#clipPath2)" stroke="none"/>
      <text x="377.2301" xml:space="preserve" y="521.132" clip-path="url(#clipPath2)" font-family="sans-serif" stroke="none">USB</text>
    </g>
  </g>
</svg>
